<?xml version="1.0" encoding="iso-8859-1"?>
<!-- Generator: Adobe Illustrator 19.0.0, SVG Export Plug-In . SVG Version: 6.00 Build 0)  -->
<svg xmlns="http://www.w3.org/2000/svg" xmlns:xlink="http://www.w3.org/1999/xlink" version="1.1" id="Layer_1" x="0px" y="0px" viewBox="0 0 512 512" style="enable-background:new 0 0 512 512;" xml:space="preserve">
<g>
	<g>
		<path d="M435.745,32.681c-4.513,0-8.17,3.657-8.17,8.17v430.298c0,4.513,3.657,8.17,8.17,8.17s8.17-3.657,8.17-8.17V40.851    C443.915,36.338,440.258,32.681,435.745,32.681z"/>
	</g>
</g>
<g>
	<g>
		<path d="M468.426,32.681c-4.513,0-8.17,3.657-8.17,8.17v430.298c0,4.513,3.657,8.17,8.17,8.17s8.17-3.657,8.17-8.17V40.851    C476.596,36.338,472.939,32.681,468.426,32.681z"/>
	</g>
</g>
<g>
	<g>
		<path d="M501.106,0h-65.362c-4.513,0-8.17,3.657-8.17,8.17s3.657,8.17,8.17,8.17h57.191V495.66h-81.702V8.17    c0-4.513-3.657-8.17-8.17-8.17H43.574C21.049,0,2.723,18.325,2.723,40.851v430.298C2.723,493.675,21.049,512,43.574,512h457.532    c4.513,0,8.17-3.657,8.17-8.17V8.17C509.277,3.657,505.62,0,501.106,0z M68.085,495.66H43.574    c-13.515,0-24.511-10.996-24.511-24.511V40.851c0-13.515,10.996-24.511,24.511-24.511h24.511V495.66z M394.894,495.66H84.426    V16.34h310.468V495.66z"/>
	</g>
</g>
<g>
	<g>
		<path d="M309.553,431.67l-32.68-21.787c-2.745-1.83-6.319-1.83-9.064,0l-28.148,18.766l-28.15-18.766    c-2.745-1.83-6.319-1.83-9.063,0l-32.682,21.787c-3.754,2.503-4.769,7.575-2.266,11.329c1.574,2.362,4.165,3.64,6.805,3.64    c1.558,0,3.132-0.444,4.524-1.374l28.15-18.766l28.15,18.766c2.745,1.83,6.319,1.83,9.063,0l28.148-18.766l28.148,18.766    c3.754,2.503,8.827,1.489,11.329-2.266C314.322,439.246,313.307,434.174,309.553,431.67z"/>
	</g>
</g>
<g>
	<g>
		<path d="M337.702,215.149c4.513,0,8.17-3.657,8.17-8.17V73.532c0-4.513-3.657-8.17-8.17-8.17H141.617    c-4.513,0-8.17,3.657-8.17,8.17v299.574c0,4.513,3.657,8.17,8.17,8.17h196.085c4.513,0,8.17-3.657,8.17-8.17V239.66    c0-4.513-3.657-8.17-8.17-8.17s-8.17,3.657-8.17,8.17v125.277H149.787V81.702h179.745v125.277    C329.532,211.492,333.189,215.149,337.702,215.149z"/>
	</g>
</g>
<g>
</g>
<g>
</g>
<g>
</g>
<g>
</g>
<g>
</g>
<g>
</g>
<g>
</g>
<g>
</g>
<g>
</g>
<g>
</g>
<g>
</g>
<g>
</g>
<g>
</g>
<g>
</g>
<g>
</g>
</svg>
