<?xml version="1.0" encoding="iso-8859-1"?>
<!-- Generator: Adobe Illustrator 19.0.0, SVG Export Plug-In . SVG Version: 6.00 Build 0)  -->
<svg xmlns="http://www.w3.org/2000/svg" xmlns:xlink="http://www.w3.org/1999/xlink" version="1.1" id="Layer_1" x="0px" y="0px" viewBox="0 0 512 512" style="enable-background:new 0 0 512 512;" xml:space="preserve">
<g>
	<g>
		<path d="M454.809,65.362h-21.787c-4.513,0-8.17,3.657-8.17,8.17s3.657,8.17,8.17,8.17h21.787    c22.526,0,40.851,18.325,40.851,40.851v315.938c-6.832-5.141-15.321-8.193-24.511-8.193H57.192c-4.512,0-8.17,3.657-8.17,8.17    s3.658,8.17,8.17,8.17h413.957c13.515,0,24.511,10.996,24.511,24.511c0,13.515-10.996,24.511-24.511,24.511H57.192    c-22.526,0-40.851-18.325-40.851-40.851c0-22.526,18.325-40.851,40.851-40.851h234.213c2.167,0,4.244-0.861,5.778-2.392    l108.936-108.936c1.532-1.533,2.392-3.61,2.392-5.778V8.17c0-4.513-3.657-8.17-8.17-8.17H57.192C25.656,0,0,25.657,0,57.192    v397.617C0,486.343,25.656,512,57.192,512h413.957C493.675,512,512,493.675,512,471.149V122.553    C512,91.018,486.343,65.362,454.809,65.362z M299.574,386.063v-81.042h81.042L299.574,386.063z M16.34,57.192    c0-22.526,18.325-40.851,40.851-40.851H392.17v272.34H291.404c-4.513,0-8.17,3.657-8.17,8.17v100.766H57.192    c-15.987,0-30.463,6.594-40.851,17.204V57.192z"/>
	</g>
</g>
<g>
	<g>
		<path d="M334.979,49.021c-4.513,0-8.17,3.657-8.17,8.17V264.17c0,4.513,3.657,8.17,8.17,8.17c4.513,0,8.17-3.657,8.17-8.17V57.192    C343.149,52.678,339.492,49.021,334.979,49.021z"/>
	</g>
</g>
<g>
	<g>
		<path d="M291.404,217.872c-4.513,0-8.17,3.657-8.17,8.17v38.128c0,4.513,3.657,8.17,8.17,8.17c4.513,0,8.17-3.657,8.17-8.17    v-38.128C299.574,221.529,295.917,217.872,291.404,217.872z"/>
	</g>
</g>
<g>
	<g>
		<path d="M247.83,217.872c-4.512,0-8.17,3.657-8.17,8.17v130.723c0,4.513,3.658,8.17,8.17,8.17c4.512,0,8.17-3.657,8.17-8.17    V226.043C256,221.529,252.342,217.872,247.83,217.872z"/>
	</g>
</g>
<g>
	<g>
		<path d="M204.255,217.872c-4.512,0-8.17,3.657-8.17,8.17v130.723c0,4.513,3.658,8.17,8.17,8.17s8.17-3.657,8.17-8.17V226.043    C212.426,221.529,208.767,217.872,204.255,217.872z"/>
	</g>
</g>
<g>
	<g>
		<path d="M160.681,217.872c-4.512,0-8.17,3.657-8.17,8.17v130.723c0,4.513,3.658,8.17,8.17,8.17s8.17-3.657,8.17-8.17V226.043    C168.851,221.529,165.193,217.872,160.681,217.872z"/>
	</g>
</g>
<g>
	<g>
		<path d="M117.106,49.021c-4.512,0-8.17,3.657-8.17,8.17v299.574c0,4.513,3.658,8.17,8.17,8.17s8.17-3.657,8.17-8.17V57.192    C125.277,52.678,121.619,49.021,117.106,49.021z"/>
	</g>
</g>
<g>
	<g>
		<path d="M73.532,49.021c-4.512,0-8.17,3.657-8.17,8.17v299.574c0,4.513,3.658,8.17,8.17,8.17s8.17-3.657,8.17-8.17V57.192    C81.702,52.678,78.044,49.021,73.532,49.021z"/>
	</g>
</g>
<g>
	<g>
		<path d="M291.404,49.021h-49.021c-4.512,0-8.17,3.657-8.17,8.17c0,4.513,3.658,8.17,8.17,8.17h40.851v114.383H168.851V65.362    h40.851c4.512,0,8.17-3.657,8.17-8.17c0-4.513-3.658-8.17-8.17-8.17h-49.021c-4.512,0-8.17,3.657-8.17,8.17v130.723    c0,4.513,3.658,8.17,8.17,8.17h130.723c4.513,0,8.17-3.657,8.17-8.17V57.192C299.574,52.678,295.917,49.021,291.404,49.021z"/>
	</g>
</g>
<g>
	<g>
		<path d="M471.149,462.979H57.192c-4.512,0-8.17,3.657-8.17,8.17s3.658,8.17,8.17,8.17h413.957c4.513,0,8.17-3.657,8.17-8.17    S475.662,462.979,471.149,462.979z"/>
	</g>
</g>
<g>
	<g>
		<circle cx="452.085" cy="354.043" r="8.17"/>
	</g>
</g>
<g>
	<g>
		<circle cx="419.404" cy="386.723" r="8.17"/>
	</g>
</g>
<g>
</g>
<g>
</g>
<g>
</g>
<g>
</g>
<g>
</g>
<g>
</g>
<g>
</g>
<g>
</g>
<g>
</g>
<g>
</g>
<g>
</g>
<g>
</g>
<g>
</g>
<g>
</g>
<g>
</g>
</svg>
