<?xml version="1.0" encoding="iso-8859-1"?>
<!-- Generator: Adobe Illustrator 19.0.0, SVG Export Plug-In . SVG Version: 6.00 Build 0)  -->
<svg xmlns="http://www.w3.org/2000/svg" xmlns:xlink="http://www.w3.org/1999/xlink" version="1.1" id="Layer_1" x="0px" y="0px" viewBox="0 0 512 512" style="enable-background:new 0 0 512 512;" xml:space="preserve">
<g>
	<g>
		<path d="M503.83,32.681h-57.191V8.17c0-4.513-3.658-8.17-8.17-8.17H288.681C275.333,0,263.459,6.435,256,16.365    C248.541,6.435,236.667,0,223.319,0H73.532c-4.512,0-8.17,3.657-8.17,8.17v24.511H8.17c-4.512,0-8.17,3.657-8.17,8.17V503.83    c0,4.513,3.658,8.17,8.17,8.17h495.66c4.512,0,8.17-3.657,8.17-8.17V40.851C512,36.338,508.342,32.681,503.83,32.681z     M16.34,49.021h49.021v16.34H40.851c-4.512,0-8.17,3.657-8.17,8.17v149.787c0,4.513,3.658,8.17,8.17,8.17s8.17-3.657,8.17-8.17    V81.702h16.34v138.894c0,4.513,3.658,8.17,8.17,8.17s8.17-3.657,8.17-8.17V16.34h141.617c13.516,0,24.511,10.996,24.511,24.511    v179.745c0,4.513,3.658,8.17,8.17,8.17c4.512,0,8.17-3.657,8.17-8.17V40.851c0-13.515,10.995-24.511,24.511-24.511h141.617V247.83    H16.34V49.021z M296.851,264.17v24.511c0,13.515-10.995,24.511-24.511,24.511H239.66c-13.516,0-24.511-10.996-24.511-24.511    V264.17H296.851z M43.574,495.66H16.34V264.17h27.234V495.66z M108.936,495.66H59.915V264.17h49.021V495.66z M386.723,495.66    H125.277V264.17h73.532v24.511c0,22.526,18.325,40.851,40.851,40.851h32.681c22.526,0,40.851-18.325,40.851-40.851V264.17h73.532    V495.66z M452.085,495.66h-49.021V264.17h49.021V495.66z M495.66,495.66h-27.234V264.17h27.234V495.66z M495.66,247.83h-49.021    V81.702h16.34v141.617c0,4.513,3.658,8.17,8.17,8.17s8.17-3.657,8.17-8.17V73.532c0-4.513-3.658-8.17-8.17-8.17h-24.511v-16.34    h49.021V247.83z"/>
	</g>
</g>
<g>
	<g>
		<circle cx="84.426" cy="296.851" r="8.17"/>
	</g>
</g>
<g>
	<g>
		<circle cx="84.426" cy="462.979" r="8.17"/>
	</g>
</g>
<g>
	<g>
		<circle cx="84.426" cy="379.915" r="8.17"/>
	</g>
</g>
<g>
	<g>
		<circle cx="427.574" cy="296.851" r="8.17"/>
	</g>
</g>
<g>
	<g>
		<circle cx="427.574" cy="462.979" r="8.17"/>
	</g>
</g>
<g>
	<g>
		<circle cx="427.574" cy="379.915" r="8.17"/>
	</g>
</g>
<g>
</g>
<g>
</g>
<g>
</g>
<g>
</g>
<g>
</g>
<g>
</g>
<g>
</g>
<g>
</g>
<g>
</g>
<g>
</g>
<g>
</g>
<g>
</g>
<g>
</g>
<g>
</g>
<g>
</g>
</svg>
