<?xml version="1.0" encoding="iso-8859-1"?>
<!-- Generator: Adobe Illustrator 19.0.0, SVG Export Plug-In . SVG Version: 6.00 Build 0)  -->
<svg xmlns="http://www.w3.org/2000/svg" xmlns:xlink="http://www.w3.org/1999/xlink" version="1.1" id="Layer_1" x="0px" y="0px" viewBox="0 0 512 512" style="enable-background:new 0 0 512 512;" xml:space="preserve">
<g>
	<g>
		<circle cx="89.872" cy="397.617" r="8.17"/>
	</g>
</g>
<g>
	<g>
		<circle cx="57.192" cy="430.298" r="8.17"/>
	</g>
</g>
<g>
	<g>
		<path d="M73.532,32.681c-22.526,0-40.851,18.325-40.851,40.851s18.325,40.851,40.851,40.851s40.851-18.325,40.851-40.851    S96.058,32.681,73.532,32.681z M73.532,98.043c-13.516,0-24.511-10.996-24.511-24.511c0-13.515,10.995-24.511,24.511-24.511    s24.511,10.996,24.511,24.511C98.043,87.047,87.048,98.043,73.532,98.043z"/>
	</g>
</g>
<g>
	<g>
		<path d="M503.83,0H73.532C32.986,0,0,32.986,0,73.532v364.936C0,479.014,32.986,512,73.532,512    c37.783,0,68.988-28.648,73.067-65.362H503.83c4.513,0,8.17-3.657,8.17-8.17V8.17C512,3.657,508.343,0,503.83,0z M130.723,438.468    c0,31.535-25.656,57.191-57.191,57.191S16.34,470.003,16.34,438.468v-318.79c13.491,16.688,34.111,27.385,57.191,27.385    s43.701-10.698,57.191-27.385V438.468z M73.532,130.723c-31.536,0-57.191-25.657-57.191-57.191S41.996,16.34,73.532,16.34    s57.191,25.657,57.191,57.191S105.068,130.723,73.532,130.723z M495.66,430.298H147.064V73.532    c0-23.08-10.698-43.701-27.385-57.191H495.66V430.298z"/>
	</g>
</g>
<g>
	<g>
		<path d="M438.468,272.34h-43.574c-3.518,0-6.64,2.25-7.751,5.586l-10.894,32.681c-0.831,2.491-0.413,5.231,1.123,7.362    c1.535,2.13,4.001,3.392,6.628,3.392h46.298v2.723c0,4.513,3.657,8.17,8.17,8.17s8.17-3.657,8.17-8.17v-43.574    C446.638,275.997,442.981,272.34,438.468,272.34z M430.298,305.021h-34.963l5.447-16.34h29.516V305.021z"/>
	</g>
</g>
<g>
	<g>
		<path d="M405.787,228.766c-4.513,0-8.17,3.657-8.17,8.17v10.894c0,4.513,3.657,8.17,8.17,8.17s8.17-3.657,8.17-8.17v-10.894    C413.957,232.423,410.3,228.766,405.787,228.766z"/>
	</g>
</g>
<g>
	<g>
		<path d="M242.383,348.596h-70.809c-4.512,0-8.17,3.657-8.17,8.17c0,4.513,3.658,8.17,8.17,8.17h70.809    c4.506,0,8.17,3.665,8.17,8.17c0,4.513,3.658,8.17,8.17,8.17c4.513,0,8.17-3.657,8.17-8.17    C266.894,359.592,255.899,348.596,242.383,348.596z"/>
	</g>
</g>
<g>
	<g>
		<path d="M471.149,32.681H165.988c-4.512,0-8.17,3.657-8.17,8.17s3.657,8.17,8.17,8.17h296.99v348.596H171.574    c-4.512,0-8.17,3.657-8.17,8.17s3.658,8.17,8.17,8.17h299.574c4.513,0,8.17-3.657,8.17-8.17V40.851    C479.319,36.338,475.662,32.681,471.149,32.681z"/>
	</g>
</g>
<g>
	<g>
		<path d="M438.468,76.255H264.17c-4.513,0-8.17,3.657-8.17,8.17s3.657,8.17,8.17,8.17h8.17v21.787h-2.723    c-10.652,0-19.739,6.83-23.111,16.34h-25.91c-4.512,0-8.17,3.657-8.17,8.17v24.511h-13.617c-4.512,0-8.17,3.657-8.17,8.17    s3.658,8.17,8.17,8.17h89.872v16.34h-78.979c-16.519,0-29.957,13.439-29.957,29.957c0,16.518,13.438,29.957,29.957,29.957h2.723    v29.957c0,16.518,13.438,29.957,29.957,29.957h38.128c4.513,0,8.17-3.657,8.17-8.17V272.34c0-4.513-3.657-8.17-8.17-8.17    c-4.513,0-8.17,3.657-8.17,8.17v27.234h-29.957c-7.509,0-13.617-6.108-13.617-13.617V247.83c0-4.513-3.658-8.17-8.17-8.17h-10.894    c-7.509,0-13.617-6.108-13.617-13.617s6.108-13.617,13.617-13.617h62.638v27.234c0,4.513,3.657,8.17,8.17,8.17    c4.513,0,8.17-3.657,8.17-8.17v-27.234h8.17c4.513,0,8.17-3.657,8.17-8.17v-24.511h16.34v46.298c0,4.513,3.657,8.17,8.17,8.17    s8.17-3.657,8.17-8.17v-19.064h37.36c10.652,0,19.738-6.83,23.111-16.34h21.232v24.511c0,4.513,3.657,8.17,8.17,8.17    s8.17-3.657,8.17-8.17V92.596h2.723c4.513,0,8.17-3.657,8.17-8.17S442.981,76.255,438.468,76.255z M419.404,174.298h-28.002    c-4.513,0-8.17,3.657-8.17,8.17c0,4.506-3.665,8.17-8.17,8.17h-37.36v-19.064c0-4.513-3.657-8.17-8.17-8.17H228.766v-16.34h24.511    c4.513,0,8.17-3.657,8.17-8.17c0-4.506,3.665-8.17,8.17-8.17h10.894c4.513,0,8.17-3.657,8.17-8.17V92.596h130.723V174.298z"/>
	</g>
</g>
<g>
	<g>
		<path d="M313.191,264.17c-4.513,0-8.17,3.657-8.17,8.17v10.894c0,4.513,3.657,8.17,8.17,8.17c4.513,0,8.17-3.657,8.17-8.17V272.34    C321.362,267.827,317.705,264.17,313.191,264.17z"/>
	</g>
</g>
<g>
	<g>
		<path d="M198.809,87.149c-4.512,0-8.17,3.657-8.17,8.17v10.894c0,4.513,3.658,8.17,8.17,8.17s8.17-3.657,8.17-8.17V95.319    C206.979,90.806,203.321,87.149,198.809,87.149z"/>
	</g>
</g>
<g>
</g>
<g>
</g>
<g>
</g>
<g>
</g>
<g>
</g>
<g>
</g>
<g>
</g>
<g>
</g>
<g>
</g>
<g>
</g>
<g>
</g>
<g>
</g>
<g>
</g>
<g>
</g>
<g>
</g>
</svg>
