<?xml version="1.0" encoding="iso-8859-1"?>
<!-- Generator: Adobe Illustrator 19.0.0, SVG Export Plug-In . SVG Version: 6.00 Build 0)  -->
<svg xmlns="http://www.w3.org/2000/svg" xmlns:xlink="http://www.w3.org/1999/xlink" version="1.1" id="Layer_1" x="0px" y="0px" viewBox="0 0 512 512" style="enable-background:new 0 0 512 512;" xml:space="preserve">
<g>
	<g>
		<path d="M471.149,87.149h-99.448c-2.466-6.952-7.983-12.469-14.935-14.935V8.17c0-4.513-3.657-8.17-8.17-8.17H163.404    c-4.513,0-8.17,3.657-8.17,8.17v64.044c-6.952,2.466-12.469,7.983-14.935,14.935H40.851C18.325,87.149,0,105.474,0,128v343.149    C0,493.675,18.325,512,40.851,512h430.298C493.675,512,512,493.675,512,471.149V128C512,105.474,493.675,87.149,471.149,87.149z     M171.574,16.34h168.851v16.34H171.574V16.34z M171.574,49.021h168.851v38.128H171.574V49.021z M40.851,495.66    c-13.515,0-24.511-10.996-24.511-24.511v-56.804c43.046,3.9,77.414,38.268,81.314,81.314H40.851z M495.66,471.149    c0,13.515-10.996,24.511-24.511,24.511h-56.804c3.9-43.046,38.268-77.414,81.314-81.314V471.149z M495.66,226.043    c0,13.515-10.996,24.511-24.511,24.511H296.851v-40.851c0-4.513-3.657-8.17-8.17-8.17h-65.362c-4.513,0-8.17,3.657-8.17,8.17    v98.043c0,22.526,18.325,40.851,40.851,40.851s40.851-18.325,40.851-40.851v-40.851h174.298c9.19,0,17.678-3.051,24.511-8.192    v139.227c-52.066,3.979-93.752,45.665-97.731,97.731H114.071c-3.979-52.066-45.665-93.752-97.731-97.731V258.702    c6.832,5.141,15.321,8.192,24.511,8.192h149.787c4.513,0,8.17-3.657,8.17-8.17c0-4.513-3.657-8.17-8.17-8.17H40.851    c-13.515,0-24.511-10.996-24.511-24.511V128c0-13.515,10.996-24.511,24.511-24.511h430.298c13.515,0,24.511,10.996,24.511,24.511    V226.043z M231.489,283.234v-65.362h49.021v65.362H231.489z M280.511,299.574v8.17c0,13.515-10.996,24.511-24.511,24.511    c-13.515,0-24.511-10.996-24.511-24.511v-8.17H280.511z"/>
	</g>
</g>
<g>
	<g>
		<circle cx="49.021" cy="136.17" r="8.17"/>
	</g>
</g>
<g>
	<g>
		<circle cx="81.702" cy="168.851" r="8.17"/>
	</g>
</g>
<g>
	<g>
		<circle cx="430.298" cy="381.277" r="8.17"/>
	</g>
</g>
<g>
</g>
<g>
</g>
<g>
</g>
<g>
</g>
<g>
</g>
<g>
</g>
<g>
</g>
<g>
</g>
<g>
</g>
<g>
</g>
<g>
</g>
<g>
</g>
<g>
</g>
<g>
</g>
<g>
</g>
</svg>
