<?xml version="1.0" encoding="iso-8859-1"?>
<!-- Generator: Adobe Illustrator 19.0.0, SVG Export Plug-In . SVG Version: 6.00 Build 0)  -->
<svg xmlns="http://www.w3.org/2000/svg" xmlns:xlink="http://www.w3.org/1999/xlink" version="1.1" id="Layer_1" x="0px" y="0px" viewBox="0 0 512 512" style="enable-background:new 0 0 512 512;" xml:space="preserve">
<g>
	<g>
		<path d="M503.83,435.744c4.512,0,8.17-3.657,8.17-8.17V182.468c0-4.513-3.658-8.17-8.17-8.17h-32.681    c-4.512,0-8.17,3.657-8.17,8.17s3.658,8.17,8.17,8.17h24.511v27.234h-49.021v-70.809h21.787c4.512,0,8.17-3.657,8.17-8.17V95.319    c0-4.513-3.658-8.17-8.17-8.17s-8.17,3.657-8.17,8.17v2.723h-37.781L260.189,1.156c-2.58-1.54-5.797-1.54-8.376,0L89.526,98.042    H51.745v-2.723c0-4.513-3.658-8.17-8.17-8.17c-4.512,0-8.17,3.657-8.17,8.17v43.574c0,4.513,3.658,8.17,8.17,8.17h21.787v70.809    H16.34v-27.234h24.511c4.512,0,8.17-3.657,8.17-8.17s-3.658-8.17-8.17-8.17H8.17c-4.512,0-8.17,3.657-8.17,8.17v245.106    c0,4.513,3.658,8.17,8.17,8.17s8.17-3.657,8.17-8.17V234.212h49.021V408.51H43.574c-4.512,0-8.17,3.657-8.17,8.17v35.404H8.17    c-4.512,0-8.17,3.657-8.17,8.17v43.574c0,4.513,3.658,8.17,8.17,8.17h495.66c4.512,0,8.17-3.657,8.17-8.17v-43.574    c0-4.513-3.658-8.17-8.17-8.17h-27.234v-35.404c0-4.513-3.658-8.17-8.17-8.17h-21.787V234.212h49.021v193.362    C495.66,432.087,499.318,435.744,503.83,435.744z M256,17.686l134.598,80.357h-30.383L260.143,39.19    c-2.558-1.504-5.727-1.504-8.284,0L151.786,98.042h-30.383L256,17.686z M327.981,98.042H184.02L256,55.711L327.981,98.042z     M495.66,468.425v27.234H16.34v-27.234H495.66z M460.255,424.851v27.234H51.745v-27.234H460.255z M81.702,174.298v-27.234h348.596    v27.234H81.702z M430.298,190.638v174.298h-16.34V190.638H430.298z M335.886,217.872v-27.234h61.731v27.234H335.886z     M397.617,234.212v130.723h-61.731V234.212H397.617z M319.546,190.638v174.298h-16.34V190.638H319.546z M256,326.808    c-4.512,0-8.17,3.657-8.17,8.17v29.957h-22.695V234.212h61.731v130.723H264.17v-29.957    C264.17,330.465,260.512,326.808,256,326.808z M225.134,217.872v-27.234h61.731v27.234H225.134z M208.795,190.638v174.298h-16.34    V190.638H208.795z M114.383,217.872v-27.234h61.731v27.234H114.383z M176.114,234.212v130.723h-61.731V234.212H176.114z     M98.043,190.638v174.298h-16.34V190.638H98.043z M430.298,381.276v27.234H81.702v-27.234H430.298z M51.745,130.723v-16.34    h102.257c0.033,0,266.195,0,266.195,0c0.033,0,40.058,0,40.058,0v16.34H51.745z"/>
	</g>
</g>
<g>
</g>
<g>
</g>
<g>
</g>
<g>
</g>
<g>
</g>
<g>
</g>
<g>
</g>
<g>
</g>
<g>
</g>
<g>
</g>
<g>
</g>
<g>
</g>
<g>
</g>
<g>
</g>
<g>
</g>
</svg>
