<?xml version="1.0" encoding="iso-8859-1"?>
<!-- Generator: Adobe Illustrator 19.0.0, SVG Export Plug-In . SVG Version: 6.00 Build 0)  -->
<svg xmlns="http://www.w3.org/2000/svg" xmlns:xlink="http://www.w3.org/1999/xlink" version="1.1" id="Layer_1" x="0px" y="0px" viewBox="0 0 512 512" style="enable-background:new 0 0 512 512;" xml:space="preserve">
<g>
	<g>
		<path d="M413.957,285.957c-9.727,0-18.177-1.955-25.727-5.349v-92.792c7.55-3.393,16.001-5.349,25.727-5.349    c4.513,0,8.17-3.657,8.17-8.17c0-4.513-3.657-8.17-8.17-8.17c-40.43,0-62.298,25.857-81.702,53.664    c-19.404-27.807-41.273-53.664-81.702-53.664c-4.513,0-8.17,3.657-8.17,8.17c0,4.513,3.657,8.17,8.17,8.17    c9.727,0,18.177,1.955,25.727,5.349v92.792c-7.55,3.393-16.002,5.349-25.727,5.349c-4.513,0-8.17,3.657-8.17,8.17    c0,4.513,3.657,8.17,8.17,8.17c40.429,0,62.298-25.857,81.702-53.664c19.404,27.807,41.273,53.664,81.702,53.664    c4.513,0,8.17-3.657,8.17-8.17C422.128,289.614,418.471,285.957,413.957,285.957z M292.621,270.119v-71.813    c11.212,9.52,20.468,22.38,29.74,35.906C313.089,247.739,303.833,260.599,292.621,270.119z M371.89,270.119    c-11.212-9.52-20.468-22.38-29.74-35.906c9.272-13.527,18.528-26.387,29.74-35.906V270.119z"/>
	</g>
</g>
<g>
	<g>
		<path d="M206.979,182.468H98.043c-4.513,0-8.17,3.657-8.17,8.17s3.657,8.17,8.17,8.17h108.936c4.513,0,8.17-3.657,8.17-8.17    S211.492,182.468,206.979,182.468z"/>
	</g>
</g>
<g>
	<g>
		<path d="M206.979,226.043H98.043c-4.513,0-8.17,3.657-8.17,8.17s3.657,8.17,8.17,8.17h108.936c4.513,0,8.17-3.657,8.17-8.17    S211.492,226.043,206.979,226.043z"/>
	</g>
</g>
<g>
	<g>
		<path d="M206.979,269.617H98.043c-4.513,0-8.17,3.657-8.17,8.17s3.657,8.17,8.17,8.17h108.936c4.513,0,8.17-3.657,8.17-8.17    S211.492,269.617,206.979,269.617z"/>
	</g>
</g>
<g>
	<g>
		<path d="M471.149,54.468H40.851c-4.513,0-8.17,3.657-8.17,8.17v343.149c0,4.513,3.657,8.17,8.17,8.17h430.298    c4.513,0,8.17-3.657,8.17-8.17V62.638C479.319,58.125,475.662,54.468,471.149,54.468z M462.979,397.617H49.021V70.809h413.957    V397.617z"/>
	</g>
</g>
<g>
	<g>
		<path d="M503.83,21.787H8.17c-4.513,0-8.17,3.657-8.17,8.17v375.83c0,4.513,3.657,8.17,8.17,8.17s8.17-3.657,8.17-8.17V38.128    H495.66v392.17H8.17c-4.513,0-8.17,3.657-8.17,8.17v43.574c0,4.513,3.657,8.17,8.17,8.17h495.66c4.513,0,8.17-3.657,8.17-8.17    V29.957C512,25.444,508.343,21.787,503.83,21.787z M495.66,473.872H16.34v-27.234H495.66V473.872z"/>
	</g>
</g>
<g>
</g>
<g>
</g>
<g>
</g>
<g>
</g>
<g>
</g>
<g>
</g>
<g>
</g>
<g>
</g>
<g>
</g>
<g>
</g>
<g>
</g>
<g>
</g>
<g>
</g>
<g>
</g>
<g>
</g>
</svg>
