<?xml version="1.0" encoding="iso-8859-1"?>
<!-- Generator: Adobe Illustrator 19.0.0, SVG Export Plug-In . SVG Version: 6.00 Build 0)  -->
<svg xmlns="http://www.w3.org/2000/svg" xmlns:xlink="http://www.w3.org/1999/xlink" version="1.1" id="Layer_1" x="0px" y="0px" viewBox="0 0 512 512" style="enable-background:new 0 0 512 512;" xml:space="preserve">
<g>
	<g>
		<path d="M471.149,21.787H40.851C18.325,21.787,0,40.112,0,62.638V367.66c0,22.526,18.325,40.851,40.851,40.851h256v40.851    c0,9.19,3.051,17.678,8.192,24.511h-98.086c5.141-6.832,8.192-15.321,8.192-24.511v-16.34c0-4.513-3.658-8.17-8.17-8.17    c-4.512,0-8.17,3.657-8.17,8.17v16.34c0,13.515-10.995,24.511-24.511,24.511h-65.363c-4.512,0-8.17,3.657-8.17,8.17    s3.658,8.17,8.17,8.17h294.128c4.513,0,8.17-3.657,8.17-8.17s-3.657-8.17-8.17-8.17h-65.361    c-13.515,0-24.511-10.996-24.511-24.511v-40.851h157.957c22.526,0,40.851-18.325,40.851-40.851V62.638    C512,40.112,493.675,21.787,471.149,21.787z M495.66,367.66c0,13.515-10.996,24.511-24.511,24.511H40.851    c-13.516,0-24.511-10.996-24.511-24.511v-24.511H495.66V367.66z M495.66,326.809H16.34V62.638    c0-13.515,10.995-24.511,24.511-24.511h430.298c13.515,0,24.511,10.996,24.511,24.511V326.809z"/>
	</g>
</g>
<g>
	<g>
		<circle cx="256" cy="367.66" r="8.17"/>
	</g>
</g>
<g>
	<g>
		<path d="M371.745,84.426c-10.651,0-19.733,6.831-23.105,16.34H123.915c-2.167,0-4.245,0.861-5.777,2.392l-30.287,30.289H40.851    c-4.512,0-8.17,3.657-8.17,8.17c0,4.513,3.658,8.17,8.17,8.17h50.383c2.167,0,4.245-0.861,5.777-2.392l30.288-30.289h221.341    c3.373,9.509,12.455,16.34,23.105,16.34c13.515,0,24.511-10.996,24.511-24.511C396.255,95.422,385.259,84.426,371.745,84.426z     M371.745,117.106c-4.506,0-8.17-3.665-8.17-8.17c0-4.506,3.665-8.17,8.17-8.17c4.506,0,8.17,3.665,8.17,8.17    C379.915,113.442,376.25,117.106,371.745,117.106z"/>
	</g>
</g>
<g>
	<g>
		<path d="M256,149.787c-10.651,0-19.733,6.831-23.105,16.34h-76.299c-2.167,0-4.245,0.861-5.777,2.392l-30.287,30.289h-79.68    c-4.512,0-8.17,3.657-8.17,8.17c0,4.513,3.658,8.17,8.17,8.17h83.064c2.167,0,4.245-0.861,5.777-2.392l30.288-30.289h72.915    c3.373,9.509,12.454,16.34,23.105,16.34c13.515,0,24.511-10.996,24.511-24.511C280.511,160.783,269.515,149.787,256,149.787z     M256.001,182.468c-4.506,0-8.17-3.665-8.17-8.17c0-4.506,3.665-8.17,8.17-8.17c4.506,0,8.17,3.665,8.17,8.17    C264.171,178.803,260.507,182.468,256.001,182.468z"/>
	</g>
</g>
<g>
	<g>
		<path d="M471.15,264.17h-79.68l-30.288-30.289c-1.533-1.532-3.61-2.392-5.778-2.392h-76.3c-3.373-9.509-12.455-16.34-23.105-16.34    c-13.516,0-24.511,10.996-24.511,24.511c0,13.515,10.995,24.511,24.511,24.511c10.651,0,19.733-6.831,23.105-16.34h72.916    l30.288,30.289c1.533,1.532,3.61,2.392,5.778,2.392h83.064c4.513,0,8.17-3.657,8.17-8.17    C479.32,267.827,475.663,264.17,471.15,264.17z M255.999,247.83c-4.506,0-8.17-3.665-8.17-8.17c0-4.506,3.665-8.17,8.17-8.17    c4.506,0,8.17,3.665,8.17,8.17C264.169,244.165,260.505,247.83,255.999,247.83z"/>
	</g>
</g>
<g>
</g>
<g>
</g>
<g>
</g>
<g>
</g>
<g>
</g>
<g>
</g>
<g>
</g>
<g>
</g>
<g>
</g>
<g>
</g>
<g>
</g>
<g>
</g>
<g>
</g>
<g>
</g>
<g>
</g>
</svg>
