<?xml version="1.0" encoding="iso-8859-1"?>
<!-- Generator: Adobe Illustrator 19.0.0, SVG Export Plug-In . SVG Version: 6.00 Build 0)  -->
<svg xmlns="http://www.w3.org/2000/svg" xmlns:xlink="http://www.w3.org/1999/xlink" version="1.1" id="Layer_1" x="0px" y="0px" viewBox="0 0 511.999 511.999" style="enable-background:new 0 0 511.999 511.999;" xml:space="preserve">
<g>
	<g>
		<path d="M459.081,129.413c-0.007-0.134-0.016-0.268-0.031-0.401c-0.012-0.122-0.027-0.243-0.046-0.365    c-0.02-0.132-0.042-0.263-0.069-0.393c-0.024-0.12-0.049-0.24-0.078-0.359c-0.033-0.134-0.072-0.267-0.111-0.399    c-0.034-0.112-0.066-0.223-0.105-0.334c-0.052-0.151-0.113-0.3-0.174-0.447c-0.037-0.088-0.07-0.178-0.109-0.265    c-0.217-0.475-0.478-0.928-0.781-1.353c-0.054-0.077-0.114-0.148-0.171-0.222c-0.099-0.129-0.198-0.257-0.305-0.38    c-0.075-0.086-0.154-0.169-0.231-0.252c-0.097-0.104-0.195-0.205-0.297-0.304c-0.086-0.083-0.174-0.161-0.264-0.24    c-0.103-0.09-0.208-0.179-0.317-0.265c-0.093-0.073-0.187-0.145-0.282-0.214c-0.112-0.082-0.228-0.159-0.344-0.235    c-0.098-0.063-0.195-0.125-0.295-0.184c-0.121-0.071-0.244-0.137-0.369-0.203c-0.104-0.053-0.207-0.108-0.312-0.157    c-0.125-0.059-0.254-0.111-0.382-0.163c-0.111-0.045-0.221-0.09-0.334-0.131c-0.042-0.015-0.082-0.034-0.124-0.049    c-14.173-4.8-28.928-7.233-43.854-7.233c-23.763,0-47.261,6.315-67.951,18.261c-32.838,18.958-56.244,50.757-64.669,87.651    l-12.906,7.453v-81.632c36.714-4.079,65.362-35.284,65.362-73.067V8.17c0-4.513-3.658-8.17-8.17-8.17H190.637    c-4.512,0-8.17,3.657-8.17,8.17v65.362c0,37.783,28.648,68.988,65.362,73.067v81.632l-12.905-7.45    c-8.425-36.895-31.831-68.693-64.669-87.651c-20.69-11.946-44.188-18.261-67.951-18.261c-14.927,0-29.682,2.433-43.854,7.233    c-0.038,0.013-0.073,0.029-0.111,0.044c-0.126,0.045-0.25,0.095-0.373,0.146c-0.117,0.048-0.232,0.096-0.345,0.148    c-0.117,0.054-0.23,0.113-0.343,0.172c-0.114,0.06-0.228,0.121-0.339,0.186c-0.109,0.063-0.215,0.131-0.32,0.199    c-0.109,0.071-0.217,0.144-0.321,0.219c-0.101,0.073-0.202,0.148-0.3,0.227c-0.103,0.082-0.203,0.166-0.302,0.253    c-0.093,0.082-0.185,0.163-0.275,0.249c-0.099,0.096-0.194,0.195-0.289,0.295c-0.081,0.085-0.161,0.169-0.237,0.258    c-0.105,0.122-0.203,0.248-0.3,0.375c-0.058,0.076-0.119,0.148-0.174,0.227c-0.303,0.425-0.564,0.878-0.781,1.353    c-0.04,0.087-0.073,0.176-0.109,0.265c-0.061,0.147-0.122,0.295-0.174,0.447c-0.039,0.111-0.071,0.223-0.105,0.334    c-0.039,0.132-0.078,0.265-0.111,0.399c-0.029,0.12-0.054,0.239-0.078,0.359c-0.026,0.131-0.049,0.261-0.069,0.393    c-0.017,0.122-0.033,0.243-0.046,0.365c-0.013,0.133-0.023,0.267-0.03,0.401c-0.007,0.121-0.011,0.242-0.012,0.362    c-0.001,0.135,0.003,0.271,0.009,0.407c0.005,0.121,0.011,0.241,0.021,0.361c0.012,0.134,0.029,0.268,0.048,0.403    c0.016,0.122,0.033,0.243,0.056,0.364c0.008,0.044,0.011,0.086,0.02,0.13c7.677,38.448,31.534,71.73,65.453,91.313    c20.69,11.946,44.188,18.261,67.951,18.261c13.673,0,27.195-2.065,40.264-6.097l21.102,12.18v25.669    c-8.932,0.973-14.565,3.463-19.651,5.724c-5.726,2.545-10.67,4.743-21.191,4.743c-10.523,0-15.468-2.198-21.195-4.743    c-6.487-2.884-13.84-6.152-27.831-6.152c-13.991,0-21.344,3.268-27.831,6.151c-5.727,2.545-10.671,4.743-21.195,4.743    c-4.512,0-8.17,3.657-8.17,8.17v111.66c0,4.513,3.658,8.17,8.17,8.17c4.512,0,8.17-3.657,8.17-8.17v-60.342    c8.936-0.973,14.572-3.463,19.661-5.725c5.727-2.545,10.672-4.743,21.196-4.743c10.523,0,15.468,2.198,21.195,4.743    c6.487,2.884,13.84,6.152,27.83,6.152c13.989,0,21.341-3.268,27.828-6.151c3.996-1.776,7.618-3.38,13.013-4.189v32.593    c-36.714,4.079-65.362,35.284-65.362,73.067c0,4.513,3.658,8.17,8.17,8.17s8.17-3.657,8.17-8.17    c0-28.76,21.344-52.62,49.021-56.599v89.279c0,4.513,3.658,8.17,8.17,8.17c4.512,0,8.17-3.657,8.17-8.17v-56.599    c27.677,3.977,49.021,27.838,49.021,56.599c0,4.513,3.658,8.17,8.17,8.17s8.17-3.657,8.17-8.17    c0-37.783-28.648-68.988-65.362-73.067v-65.276c5.404,0.808,9.03,2.414,13.029,4.191c6.488,2.884,13.841,6.152,27.83,6.152    s21.341-3.268,27.828-6.151c5.725-2.545,10.669-4.743,21.19-4.743c10.52,0,15.465,2.198,21.19,4.743    c5.087,2.26,10.723,4.752,19.658,5.725v152.937H117.105v-59.915c0-4.513-3.658-8.17-8.17-8.17s-8.17,3.657-8.17,8.17v68.085    c0,4.513,3.658,8.17,8.17,8.17h294.128c4.512,0,8.17-3.657,8.17-8.17V291.403c0-4.513-3.658-8.17-8.17-8.17    c-10.521,0-15.466-2.198-21.19-4.743c-6.487-2.882-13.839-6.151-27.828-6.151c-13.989,0-21.341,3.268-27.828,6.151    c-5.725,2.545-10.67,4.743-21.191,4.743c-10.521,0-15.466-2.198-21.192-4.743c-5.088-2.262-10.726-4.753-19.665-5.725v-25.666    l21.103-12.183c13.069,4.032,26.591,6.097,40.264,6.097c23.763,0,47.261-6.315,67.951-18.261    c33.919-19.583,57.776-52.865,65.453-91.313c0.009-0.044,0.012-0.086,0.02-0.13c0.023-0.121,0.039-0.242,0.057-0.364    c0.018-0.134,0.036-0.269,0.048-0.403c0.011-0.12,0.016-0.24,0.021-0.361c0.005-0.136,0.01-0.272,0.009-0.407    C459.092,129.654,459.087,129.534,459.081,129.413z M186.462,224.672c-20.899,0-41.571-5.558-59.781-16.071    c-24.173-13.957-42.536-35.82-52.235-61.604l131.72,76.049C199.667,224.125,193.084,224.672,186.462,224.672z M82.6,132.836    c6.499-1.081,13.083-1.628,19.704-1.628c20.899,0,41.571,5.558,59.781,16.071c24.173,13.956,42.536,35.82,52.235,61.604    L82.6,132.836z M247.828,316.343c-8.931,0.972-14.564,3.462-19.65,5.721c-5.726,2.545-10.67,4.743-21.191,4.743    c-10.523,0-15.468-2.198-21.195-4.743c-6.487-2.882-13.84-6.151-27.831-6.151c-13.991,0-21.344,3.268-27.831,6.151    c-3.999,1.777-7.622,3.381-13.024,4.191v-27.1c8.946-0.972,14.57-3.471,19.661-5.733c5.727-2.545,10.672-4.743,21.196-4.743    s15.468,2.198,21.195,4.743c6.487,2.884,13.84,6.152,27.83,6.152c13.989,0,21.341-3.268,27.828-6.151    c3.996-1.776,7.618-3.38,13.013-4.189V316.343z M277.198,293.423c6.487,2.882,13.84,6.151,27.829,6.151s21.341-3.268,27.828-6.151    c5.725-2.545,10.669-4.743,21.19-4.743c10.52,0,15.465,2.198,21.19,4.743c5.09,2.263,10.714,4.762,19.658,5.733v27.1    c-5.4-0.808-9.023-2.413-13.02-4.19c-6.487-2.885-13.839-6.153-27.828-6.153c-13.989,0-21.341,3.268-27.828,6.151    c-5.725,2.545-10.67,4.743-21.191,4.743c-10.521,0-15.466-2.198-21.192-4.743c-5.088-2.261-10.726-4.753-19.665-5.725v-27.109    C269.573,290.039,273.199,291.645,277.198,293.423z M255.999,130.722c-31.536,0-57.191-25.657-57.191-57.191V16.339H313.19v57.191    C313.19,105.066,287.535,130.722,255.999,130.722z M349.913,147.28c18.21-10.513,38.881-16.071,59.781-16.071    c6.621,0,13.204,0.547,19.704,1.628l-131.72,76.048C307.376,183.101,325.74,161.236,349.913,147.28z M385.317,208.601    c-18.21,10.513-38.881,16.071-59.781,16.071c-6.621,0-13.205-0.547-19.704-1.628l131.72-76.049    C427.853,172.78,409.49,194.645,385.317,208.601z"/>
	</g>
</g>
<g>
	<g>
		<circle cx="362.212" cy="386.722" r="8.17"/>
	</g>
</g>
<g>
	<g>
		<circle cx="149.786" cy="462.978" r="8.17"/>
	</g>
</g>
<g>
</g>
<g>
</g>
<g>
</g>
<g>
</g>
<g>
</g>
<g>
</g>
<g>
</g>
<g>
</g>
<g>
</g>
<g>
</g>
<g>
</g>
<g>
</g>
<g>
</g>
<g>
</g>
<g>
</g>
</svg>
