<?xml version="1.0" encoding="iso-8859-1"?>
<!-- Generator: Adobe Illustrator 19.0.0, SVG Export Plug-In . SVG Version: 6.00 Build 0)  -->
<svg xmlns="http://www.w3.org/2000/svg" xmlns:xlink="http://www.w3.org/1999/xlink" version="1.1" id="Layer_1" x="0px" y="0px" viewBox="0 0 512 512" style="enable-background:new 0 0 512 512;" xml:space="preserve">
<g>
	<g>
		<path d="M471.149,201.532c-4.513,0-8.17,3.657-8.17,8.17c0,31.535-25.657,57.191-57.191,57.191h-12.299    c-3.373-9.509-12.455-16.34-23.105-16.34c-5.041,0-9.729,1.531-13.629,4.149c-7.066-12.234-20.278-20.49-35.392-20.49H21.323    c-4.513,0-8.17,3.657-8.17,8.17s3.657,8.17,8.17,8.17h300.039c10.651,0,19.733,6.831,23.105,16.34H21.323    c-4.513,0-8.17,3.657-8.17,8.17s3.657,8.17,8.17,8.17h323.144c-3.373,9.509-12.455,16.34-23.105,16.34H21.323    c-4.513,0-8.17,3.657-8.17,8.17s3.657,8.17,8.17,8.17h300.039c15.114,0,28.327-8.256,35.392-20.49    c3.9,2.619,8.589,4.149,13.629,4.149c10.651,0,19.733-6.831,23.105-16.34h12.299c40.546,0,73.532-32.986,73.532-73.532    C479.319,205.189,475.662,201.532,471.149,201.532z M370.383,283.234c-4.506,0-8.17-3.665-8.17-8.17c0-4.506,3.665-8.17,8.17-8.17    c4.506,0,8.17,3.665,8.17,8.17C378.553,279.569,374.889,283.234,370.383,283.234z"/>
	</g>
</g>
<g>
	<g>
		<path d="M503.83,343.149H291.404v-2.723c0-4.513-3.657-8.17-8.17-8.17h-54.468c-4.513,0-8.17,3.657-8.17,8.17v111.66H16.34    v-92.596h179.745c4.513,0,8.17-3.657,8.17-8.17s-3.657-8.17-8.17-8.17H8.17c-4.513,0-8.17,3.657-8.17,8.17v141.617    c0,4.513,3.657,8.17,8.17,8.17h212.426v2.723c0,4.513,3.657,8.17,8.17,8.17h54.468c4.513,0,8.17-3.657,8.17-8.17v-2.723H503.83    c4.513,0,8.17-3.657,8.17-8.17V351.319C512,346.806,508.343,343.149,503.83,343.149z M220.596,484.766H16.34v-16.34h204.255    V484.766z M275.064,495.66h-38.128V348.596h38.128V495.66z M495.66,484.766H291.404v-16.34H427.6    c2.15-0.007,4.105-0.843,5.56-2.206c0.065-0.062,0.129-0.123,0.193-0.186l62.307-62.308V484.766z M435.745,440.531V392.17h48.361    L435.745,440.531z M495.66,375.83h-68.085c-4.513,0-8.17,3.657-8.17,8.17v68.085h-128v-92.596H495.66V375.83z"/>
	</g>
</g>
<g>
	<g>
		<circle cx="204.255" cy="114.383" r="8.17"/>
	</g>
</g>
<g>
	<g>
		<circle cx="171.574" cy="147.064" r="8.17"/>
	</g>
</g>
<g>
	<g>
		<path d="M503.83,10.894h-24.511V8.17c0-4.513-3.657-8.17-8.17-8.17s-8.17,3.657-8.17,8.17v2.723H8.17    c-4.513,0-8.17,3.657-8.17,8.17v38.128c0,4.513,3.657,8.17,8.17,8.17h364.936v115.68L256,201.41l-117.106-20.367V89.872    c0-4.513-3.657-8.17-8.17-8.17c-4.513,0-8.17,3.657-8.17,8.17v98.043c0,3.972,2.856,7.37,6.77,8.049L254.6,217.751    c0.463,0.081,0.931,0.121,1.4,0.121c0.468,0,0.937-0.04,1.4-0.121l125.277-21.787c3.914-0.68,6.77-4.076,6.77-8.049V65.362h73.532    v111.66c0,4.513,3.657,8.17,8.17,8.17s8.17-3.657,8.17-8.17V65.362h24.511c4.513,0,8.17-3.657,8.17-8.17V19.064    C512,14.551,508.343,10.894,503.83,10.894z M462.979,49.021H16.34V27.234h446.638V49.021z M495.66,49.021h-16.34V27.234h16.34    V49.021z"/>
	</g>
</g>
<g>
</g>
<g>
</g>
<g>
</g>
<g>
</g>
<g>
</g>
<g>
</g>
<g>
</g>
<g>
</g>
<g>
</g>
<g>
</g>
<g>
</g>
<g>
</g>
<g>
</g>
<g>
</g>
<g>
</g>
</svg>
