<?xml version="1.0" encoding="iso-8859-1"?>
<!-- Generator: Adobe Illustrator 19.0.0, SVG Export Plug-In . SVG Version: 6.00 Build 0)  -->
<svg xmlns="http://www.w3.org/2000/svg" xmlns:xlink="http://www.w3.org/1999/xlink" version="1.1" id="Layer_1" x="0px" y="0px" viewBox="0 0 512 512" style="enable-background:new 0 0 512 512;" xml:space="preserve">
<g>
	<g>
		<path d="M471.149,430.298h-2.723V24.511C468.426,10.996,457.431,0,443.915,0c-13.516,0-24.511,10.996-24.511,24.511v32.681H402.03    c-3.637-14.08-16.447-24.511-31.647-24.511c-9.754,0-18.517,4.301-24.511,11.1c-5.994-6.799-14.756-11.1-24.511-11.1    c-15.2,0-28.01,10.431-31.647,24.511h-18.409c-3.636-14.08-16.446-24.511-31.646-24.511c-9.754,0-18.517,4.301-24.511,11.1    c-5.994-6.799-14.756-11.1-24.511-11.1s-18.517,4.301-24.511,11.1c-5.994-6.799-14.757-11.1-24.511-11.1    c-15.2,0-28.01,10.431-31.647,24.511H92.596V24.511C92.596,10.996,81.601,0,68.085,0C54.569,0,43.574,10.996,43.574,24.511    v405.787h-2.723C18.325,430.298,0,448.623,0,471.149v32.681c0,4.513,3.658,8.17,8.17,8.17h495.66c4.512,0,8.17-3.657,8.17-8.17    v-32.681C512,448.623,493.675,430.298,471.149,430.298z M403.064,73.532h16.34v16.34h-16.34V73.532z M354.043,65.362    c0-9.01,7.33-16.34,16.34-16.34c9.01,0,16.34,7.33,16.34,16.34v32.681c0,9.01-7.33,16.34-16.34,16.34    c-9.01,0-16.34-7.33-16.34-16.34V65.362z M305.021,65.362c0-9.01,7.33-16.34,16.34-16.34c9.01,0,16.34,7.33,16.34,16.34v32.681    c0,9.01-7.33,16.34-16.34,16.34c-9.01,0-16.34-7.33-16.34-16.34V65.362z M272.34,73.532h16.34v16.34h-16.34V73.532z     M223.319,65.362c0-9.01,7.33-16.34,16.34-16.34c9.01,0,16.34,7.33,16.34,16.34v32.681c0,9.01-7.33,16.34-16.34,16.34    c-9.01,0-16.34-7.33-16.34-16.34V65.362z M174.298,65.362c0-9.01,7.33-16.34,16.34-16.34s16.34,7.33,16.34,16.34v32.681    c0,9.01-7.33,16.34-16.34,16.34s-16.34-7.33-16.34-16.34V65.362z M125.277,65.362c0-9.01,7.33-16.34,16.34-16.34    c9.01,0,16.34,7.33,16.34,16.34v32.681c0,9.01-7.33,16.34-16.34,16.34c-9.01,0-16.34-7.33-16.34-16.34V65.362z M92.596,73.532    h16.34v16.34h-16.34V73.532z M92.596,106.213h17.374c3.637,14.08,16.447,24.511,31.647,24.511c9.754,0,18.517-4.301,24.511-11.099    c5.994,6.799,14.756,11.099,24.511,11.099s18.517-4.301,24.511-11.099c5.994,6.799,14.757,11.099,24.511,11.099    c15.2,0,28.01-10.431,31.647-24.511h18.409c3.636,14.08,16.446,24.511,31.646,24.511c9.754,0,18.517-4.301,24.511-11.099    c5.994,6.799,14.757,11.099,24.511,11.099c15.2,0,28.01-10.431,31.647-24.511h17.374v76.255H402.03    c-3.637-14.08-16.447-24.511-31.647-24.511c-9.754,0-18.517,4.301-24.511,11.099c-5.994-6.799-14.756-11.099-24.511-11.099    s-18.517,4.301-24.511,11.099c-5.994-6.799-14.756-11.099-24.511-11.099s-18.517,4.301-24.511,11.099    c-5.994-6.799-14.756-11.099-24.511-11.099c-15.2,0-28.01,10.431-31.647,24.511h-18.409c-3.636-14.08-16.446-24.511-31.646-24.511    c-15.2,0-28.01,10.431-31.647,24.511H92.596V106.213z M419.404,198.809v16.34h-16.34v-16.34H419.404z M386.723,190.638v32.681    c0,9.01-7.33,16.34-16.34,16.34c-9.01,0-16.34-7.33-16.34-16.34v-32.681c0-9.01,7.33-16.34,16.34-16.34    C379.393,174.298,386.723,181.628,386.723,190.638z M337.702,190.638v32.681c0,9.01-7.33,16.34-16.34,16.34    c-9.01,0-16.34-7.33-16.34-16.34v-32.681c0-9.01,7.33-16.34,16.34-16.34C330.372,174.298,337.702,181.628,337.702,190.638z     M288.681,190.638v32.681c0,9.01-7.33,16.34-16.34,16.34c-9.01,0-16.34-7.33-16.34-16.34v-32.681c0-9.01,7.33-16.34,16.34-16.34    C281.351,174.298,288.681,181.628,288.681,190.638z M239.66,190.638v32.681c0,9.01-7.33,16.34-16.34,16.34    s-16.34-7.33-16.34-16.34v-32.681c0-9.01,7.33-16.34,16.34-16.34S239.66,181.628,239.66,190.638z M190.638,198.809v16.34h-16.34    v-16.34H190.638z M157.957,190.638v32.681c0,9.01-7.33,16.34-16.34,16.34c-9.01,0-16.34-7.33-16.34-16.34v-32.681    c0-9.01,7.33-16.34,16.34-16.34C150.627,174.298,157.957,181.628,157.957,190.638z M92.596,198.809h16.34v16.34h-16.34V198.809z     M92.596,231.489h17.374c3.637,14.08,16.447,24.511,31.647,24.511c15.2,0,28.01-10.431,31.647-24.511h18.409    c3.636,14.08,16.446,24.511,31.646,24.511c9.754,0,18.517-4.301,24.511-11.099C253.823,251.699,262.586,256,272.34,256    c9.754,0,18.517-4.301,24.511-11.099c5.994,6.799,14.756,11.099,24.511,11.099s18.517-4.301,24.511-11.099    c5.994,6.799,14.757,11.099,24.511,11.099c15.2,0,28.01-10.431,31.647-24.511h17.374v76.255H402.03    c-3.637-14.08-16.447-24.511-31.647-24.511c-9.754,0-18.517,4.301-24.511,11.099c-5.994-6.799-14.756-11.099-24.511-11.099    s-18.517,4.301-24.511,11.099c-5.994-6.799-14.756-11.099-24.511-11.099c-15.2,0-28.01,10.431-31.647,24.511h-18.409    c-3.636-14.08-16.446-24.511-31.646-24.511c-9.754,0-18.517,4.301-24.511,11.099c-5.994-6.799-14.757-11.099-24.511-11.099    c-15.2,0-28.01,10.431-31.647,24.511H92.596V231.489z M419.404,324.085v16.34h-16.34v-16.34H419.404z M386.723,315.915v32.681    c0,9.01-7.33,16.34-16.34,16.34c-9.01,0-16.34-7.33-16.34-16.34v-32.681c0-9.01,7.33-16.34,16.34-16.34    C379.393,299.574,386.723,306.905,386.723,315.915z M337.702,315.915v32.681c0,9.01-7.33,16.34-16.34,16.34    c-9.01,0-16.34-7.33-16.34-16.34v-32.681c0-9.01,7.33-16.34,16.34-16.34C330.372,299.574,337.702,306.905,337.702,315.915z     M288.681,315.915v32.681c0,9.01-7.33,16.34-16.34,16.34c-9.01,0-16.34-7.33-16.34-16.34v-32.681c0-9.01,7.33-16.34,16.34-16.34    C281.351,299.574,288.681,306.905,288.681,315.915z M239.66,324.085v16.34h-16.34v-16.34H239.66z M206.979,315.915v32.681    c0,9.01-7.33,16.34-16.34,16.34s-16.34-7.33-16.34-16.34v-32.681c0-9.01,7.33-16.34,16.34-16.34S206.979,306.905,206.979,315.915z     M157.957,315.915v32.681c0,9.01-7.33,16.34-16.34,16.34c-9.01,0-16.34-7.33-16.34-16.34v-32.681c0-9.01,7.33-16.34,16.34-16.34    C150.627,299.574,157.957,306.905,157.957,315.915z M92.596,324.085h16.34v16.34h-16.34V324.085z M59.915,24.511    c0-4.506,3.665-8.17,8.17-8.17c4.506,0,8.17,3.665,8.17,8.17v381.277c0,4.513,3.658,8.17,8.17,8.17s8.17-3.657,8.17-8.17v-49.021    h17.374c3.637,14.08,16.447,24.511,31.647,24.511c9.754,0,18.517-4.301,24.511-11.099c5.994,6.799,14.756,11.099,24.511,11.099    c15.2,0,28.01-10.431,31.647-24.511h18.409c3.636,14.08,16.446,24.511,31.646,24.511c9.754,0,18.517-4.301,24.511-11.099    c5.994,6.799,14.756,11.099,24.511,11.099s18.517-4.301,24.511-11.099c5.994,6.799,14.757,11.099,24.511,11.099    c15.2,0,28.01-10.431,31.647-24.511h17.374v49.021c0,4.513,3.658,8.17,8.17,8.17s8.17-3.657,8.17-8.17V24.511    c0-4.506,3.665-8.17,8.17-8.17c4.506,0,8.17,3.665,8.17,8.17v405.787H59.915V24.511z M495.66,495.66H16.34v-24.511    c0-13.515,10.995-24.511,24.511-24.511h430.298c13.516,0,24.511,10.996,24.511,24.511V495.66z"/>
	</g>
</g>
<g>
</g>
<g>
</g>
<g>
</g>
<g>
</g>
<g>
</g>
<g>
</g>
<g>
</g>
<g>
</g>
<g>
</g>
<g>
</g>
<g>
</g>
<g>
</g>
<g>
</g>
<g>
</g>
<g>
</g>
</svg>
