<?xml version="1.0" encoding="iso-8859-1"?>
<!-- Generator: Adobe Illustrator 19.0.0, SVG Export Plug-In . SVG Version: 6.00 Build 0)  -->
<svg xmlns="http://www.w3.org/2000/svg" xmlns:xlink="http://www.w3.org/1999/xlink" version="1.1" id="Layer_1" x="0px" y="0px" viewBox="0 0 512 512" style="enable-background:new 0 0 512 512;" xml:space="preserve">
<g>
	<g>
		<path d="M394.894,0c-4.513,0-8.17,3.658-8.17,8.17v495.66c0,4.512,3.657,8.17,8.17,8.17s8.17-3.658,8.17-8.17V8.17    C403.064,3.658,399.407,0,394.894,0z"/>
	</g>
</g>
<g>
	<g>
		<path d="M296.851,0H8.17C3.658,0,0,3.658,0,8.17v495.66c0,4.512,3.658,8.17,8.17,8.17h288.681    c22.526,0,40.851-18.325,40.851-40.851V40.851C337.702,18.325,319.377,0,296.851,0z M321.362,471.149    c0,13.516-10.996,24.511-24.511,24.511H16.34V16.34h280.511c13.515,0,24.511,10.995,24.511,24.511V471.149z"/>
	</g>
</g>
<g>
	<g>
		<path d="M40.851,32.681c-4.512,0-8.17,3.658-8.17,8.17v430.298c0,4.512,3.658,8.17,8.17,8.17s8.17-3.658,8.17-8.17V40.851    C49.021,36.339,45.363,32.681,40.851,32.681z"/>
	</g>
</g>
<g>
	<g>
		<path d="M362.213,0c-4.513,0-8.17,3.658-8.17,8.17v495.66c0,4.512,3.657,8.17,8.17,8.17s8.17-3.658,8.17-8.17V8.17    C370.383,3.658,366.726,0,362.213,0z"/>
	</g>
</g>
<g>
	<g>
		<path d="M506.553,44.049V8.17c0-4.512-3.657-8.17-8.17-8.17h-32.681c-4.513,0-8.17,3.658-8.17,8.17v35.879    c-3.171,1.123-5.447,4.14-5.447,7.695v30.78c-18.624,3.795-32.681,20.3-32.681,40.029V264.17c0,4.512,3.657,8.17,8.17,8.17    s8.17-3.658,8.17-8.17V122.553c0-10.651,6.831-19.733,16.34-23.105v339.02c0,0.878,0.142,1.751,0.419,2.584l21.785,65.362    c1.112,3.337,4.234,5.586,7.751,5.586c3.516,0,6.639-2.251,7.751-5.586l21.789-65.362c0.278-0.833,0.419-1.706,0.419-2.584V51.745    C512,48.189,509.724,45.172,506.553,44.049z M473.872,16.34h16.34v27.234h-16.34V16.34z M482.041,477.993l-10.451-31.355h20.904    L482.041,477.993z M495.66,430.298h-27.234V136.17h27.234V430.298z M495.66,119.83h-27.234V59.915h27.234V119.83z"/>
	</g>
</g>
<g>
	<g>
		<path d="M264.17,65.362H106.213c-4.512,0-8.17,3.658-8.17,8.17v76.255c0,4.512,3.658,8.17,8.17,8.17H264.17    c4.513,0,8.17-3.658,8.17-8.17V73.532C272.34,69.02,268.683,65.362,264.17,65.362z M256,141.617H114.383V81.702H256V141.617z"/>
	</g>
</g>
<g>
</g>
<g>
</g>
<g>
</g>
<g>
</g>
<g>
</g>
<g>
</g>
<g>
</g>
<g>
</g>
<g>
</g>
<g>
</g>
<g>
</g>
<g>
</g>
<g>
</g>
<g>
</g>
<g>
</g>
</svg>
