<?xml version="1.0" encoding="iso-8859-1"?>
<!-- Generator: Adobe Illustrator 19.0.0, SVG Export Plug-In . SVG Version: 6.00 Build 0)  -->
<svg xmlns="http://www.w3.org/2000/svg" xmlns:xlink="http://www.w3.org/1999/xlink" version="1.1" id="Layer_1" x="0px" y="0px" viewBox="0 0 512 512" style="enable-background:new 0 0 512 512;" xml:space="preserve">
<g>
	<g>
		<path d="M405.787,0H106.213C47.646,0,0,47.646,0,106.213v381.277C0,501.005,10.995,512,24.511,512    c13.516,0,24.511-10.995,24.511-24.511V106.213c0-31.536,25.656-57.191,57.191-57.191h299.574    c31.536,0,57.191,25.656,57.191,57.191v381.277c0,13.516,10.995,24.511,24.511,24.511C501.005,512,512,501.005,512,487.489    V106.213C512,47.646,464.354,0,405.787,0z M495.66,487.489c0,4.506-3.665,8.17-8.17,8.17c-4.506,0-8.17-3.665-8.17-8.17V106.213    c0-40.546-32.986-73.532-73.532-73.532H106.213c-40.546,0-73.532,32.986-73.532,73.532v381.277c0,4.506-3.665,8.17-8.17,8.17    c-4.506,0-8.17-3.665-8.17-8.17V106.213c0-49.556,40.316-89.872,89.872-89.872h299.574c49.556,0,89.872,40.316,89.872,89.872    V487.489z"/>
	</g>
</g>
<g>
	<g>
		<path d="M392.851,312.491V73.532c0-4.512-3.658-8.17-8.17-8.17s-8.17,3.658-8.17,8.17v238.959    c-14.536,2.349-27.029,10.854-34.723,22.748c-7.694-11.894-20.187-20.399-34.723-22.748V73.532c0-4.512-3.658-8.17-8.17-8.17    s-8.17,3.658-8.17,8.17v238.959c-14.536,2.349-27.029,10.854-34.723,22.748c-7.694-11.894-20.187-20.399-34.723-22.748V73.532    c0-4.512-3.658-8.17-8.17-8.17s-8.17,3.658-8.17,8.17v238.959c-14.536,2.349-27.029,10.854-34.723,22.748    c-7.694-11.894-20.187-20.399-34.723-22.748V73.532c0-4.512-3.658-8.17-8.17-8.17s-8.17,3.658-8.17,8.17v238.959    c-24.286,3.924-42.894,25.027-42.894,50.403c0,28.157,22.907,51.064,51.064,51.064c17.97,0,33.79-9.339,42.894-23.41    c9.104,14.071,24.924,23.41,42.894,23.41s33.79-9.339,42.894-23.41c9.104,14.071,24.924,23.41,42.894,23.41    s33.79-9.339,42.894-23.41c9.104,14.071,24.924,23.41,42.894,23.41c28.157,0,51.064-22.907,51.064-51.064    C435.745,337.518,417.137,316.415,392.851,312.491z M127.319,397.617c-19.147,0-34.723-15.577-34.723-34.723    s15.577-34.723,34.723-34.723s34.723,15.577,34.723,34.723S146.466,397.617,127.319,397.617z M213.106,397.617    c-19.147,0-34.723-15.577-34.723-34.723s15.577-34.723,34.723-34.723s34.723,15.577,34.723,34.723    S232.253,397.617,213.106,397.617z M298.894,397.617c-19.147,0-34.723-15.577-34.723-34.723s15.577-34.723,34.723-34.723    s34.723,15.577,34.723,34.723S318.04,397.617,298.894,397.617z M384.681,397.617c-19.147,0-34.723-15.577-34.723-34.723    s15.577-34.723,34.723-34.723s34.723,15.577,34.723,34.723S403.827,397.617,384.681,397.617z"/>
	</g>
</g>
<g>
</g>
<g>
</g>
<g>
</g>
<g>
</g>
<g>
</g>
<g>
</g>
<g>
</g>
<g>
</g>
<g>
</g>
<g>
</g>
<g>
</g>
<g>
</g>
<g>
</g>
<g>
</g>
<g>
</g>
</svg>
