<?xml version="1.0" encoding="iso-8859-1"?>
<!-- Generator: Adobe Illustrator 19.0.0, SVG Export Plug-In . SVG Version: 6.00 Build 0)  -->
<svg xmlns="http://www.w3.org/2000/svg" xmlns:xlink="http://www.w3.org/1999/xlink" version="1.1" id="Layer_1" x="0px" y="0px" viewBox="0 0 512 512" style="enable-background:new 0 0 512 512;" xml:space="preserve">
<g>
	<g>
		<path d="M206.979,32.681h-65.362c-4.512,0-8.17,3.658-8.17,8.17s3.658,8.17,8.17,8.17h65.362c4.512,0,8.17-3.658,8.17-8.17    S211.491,32.681,206.979,32.681z"/>
	</g>
</g>
<g>
	<g>
		<path d="M206.979,198.809h-65.362c-4.512,0-8.17,3.658-8.17,8.17v66.723c0,4.512,3.658,8.17,8.17,8.17    c4.512,0,8.17-3.658,8.17-8.17v-58.553h49.021v157.957c0,13.516-10.995,24.511-24.511,24.511    c-13.516,0-24.511-10.995-24.511-24.511v-66.723c0-4.512-3.658-8.17-8.17-8.17c-4.512,0-8.17,3.658-8.17,8.17v66.723    c0,22.526,18.325,40.851,40.851,40.851c22.526,0,40.851-18.325,40.851-40.851V206.979    C215.149,202.467,211.491,198.809,206.979,198.809z"/>
	</g>
</g>
<g>
	<g>
		<path d="M370.383,32.681h-65.362c-4.512,0-8.17,3.658-8.17,8.17s3.658,8.17,8.17,8.17h65.362c4.512,0,8.17-3.658,8.17-8.17    S374.895,32.681,370.383,32.681z"/>
	</g>
</g>
<g>
	<g>
		<path d="M370.383,198.809h-65.362c-4.512,0-8.17,3.658-8.17,8.17v166.128c0,22.526,18.325,40.851,40.851,40.851    s40.851-18.325,40.851-40.851V206.979C378.553,202.467,374.895,198.809,370.383,198.809z M362.213,373.106    c0,13.516-10.995,24.511-24.511,24.511c-13.516,0-24.511-10.995-24.511-24.511V215.149h49.021V373.106z"/>
	</g>
</g>
<g>
	<g>
		<path d="M503.83,98.043h-92.596V47.621c9.51-3.372,16.34-12.459,16.34-23.111C427.574,10.995,416.58,0,403.064,0H272.34    c-6.273,0-12,2.372-16.34,6.261C251.66,2.372,245.932,0,239.66,0H108.936C95.42,0,84.426,10.995,84.426,24.511    c0,10.652,6.83,19.739,16.34,23.111v50.421H8.17c-4.512,0-8.17,3.658-8.17,8.17V503.83c0,4.512,3.658,8.17,8.17,8.17h32.681    c4.512,0,8.17-3.658,8.17-8.17v-24.511h413.957v24.511c0,4.512,3.658,8.17,8.17,8.17h32.681c4.512,0,8.17-3.658,8.17-8.17V106.213    C512,101.701,508.342,98.043,503.83,98.043z M32.681,495.66H16.34V114.383h16.34V495.66z M272.34,16.34h130.723    c4.506,0,8.17,3.665,8.17,8.17c0,4.506-3.665,8.17-8.17,8.17c-4.512,0-8.17,3.658-8.17,8.17v57.191H280.511V40.851    c0-4.512-3.658-8.17-8.17-8.17c-4.506,0-8.17-3.665-8.17-8.17C264.17,20.005,267.835,16.34,272.34,16.34z M264.17,47.621v50.421    h-16.34V47.621c3.046-1.08,5.811-2.751,8.17-4.866C258.36,44.871,261.124,46.542,264.17,47.621z M108.936,16.34H239.66    c4.506,0,8.17,3.665,8.17,8.17c0,4.506-3.665,8.17-8.17,8.17c-4.512,0-8.17,3.658-8.17,8.17v57.191H117.106V40.851    c0-4.512-3.658-8.17-8.17-8.17c-4.506,0-8.17-3.665-8.17-8.17C100.766,20.005,104.431,16.34,108.936,16.34z M462.979,462.979    H49.021V114.383h182.468v258.723c0,31.536-25.656,57.191-57.191,57.191c-31.536,0-57.192-25.656-57.192-57.191V138.894    c0-4.512-3.658-8.17-8.17-8.17c-4.512,0-8.17,3.658-8.17,8.17v234.213c0,40.546,32.986,73.532,73.532,73.532    c40.546,0,73.532-32.986,73.532-73.532V114.383h147.064v258.723c0,31.536-25.656,57.191-57.191,57.191    s-57.192-25.656-57.192-57.191V138.894c0-4.512-3.658-8.17-8.17-8.17c-4.512,0-8.17,3.658-8.17,8.17v234.213    c0,40.546,32.986,73.532,73.532,73.532c40.546,0,73.532-32.986,73.532-73.532V114.383h51.745V462.979z M495.66,495.66h-16.34    V114.383h16.34V495.66z"/>
	</g>
</g>
<g>
</g>
<g>
</g>
<g>
</g>
<g>
</g>
<g>
</g>
<g>
</g>
<g>
</g>
<g>
</g>
<g>
</g>
<g>
</g>
<g>
</g>
<g>
</g>
<g>
</g>
<g>
</g>
<g>
</g>
</svg>
