<?xml version="1.0" encoding="iso-8859-1"?>
<!-- Generator: Adobe Illustrator 19.0.0, SVG Export Plug-In . SVG Version: 6.00 Build 0)  -->
<svg xmlns="http://www.w3.org/2000/svg" xmlns:xlink="http://www.w3.org/1999/xlink" version="1.1" id="Layer_1" x="0px" y="0px" viewBox="0 0 512 512" style="enable-background:new 0 0 512 512;" xml:space="preserve">
<g>
	<g>
		<path d="M435.745,431.12v-18.568c9.509-3.373,16.34-12.454,16.34-23.105c0-13.516-10.996-24.511-24.511-24.511H84.426    c-13.515,0-24.511,10.995-24.511,24.511c0,10.651,6.831,19.733,16.34,23.105v18.568c-18.624,3.795-32.681,20.3-32.681,40.029    C43.574,493.675,61.9,512,84.426,512h343.149c22.526,0,40.851-18.325,40.851-40.851    C468.426,451.421,454.368,434.916,435.745,431.12z M84.426,381.277h343.149c4.506,0,8.17,3.665,8.17,8.17    c0,4.506-3.665,8.17-8.17,8.17H84.426c-4.506,0-8.17-3.665-8.17-8.17C76.255,384.941,79.92,381.277,84.426,381.277z     M427.574,495.66H84.426c-13.515,0-24.511-10.995-24.511-24.511c0-13.516,10.996-24.511,24.511-24.511h65.362    c4.513,0,8.17-3.658,8.17-8.17s-3.657-8.17-8.17-8.17H92.596v-16.34h326.808v16.34H182.468c-4.513,0-8.17,3.658-8.17,8.17    s3.657,8.17,8.17,8.17h245.106c13.515,0,24.511,10.995,24.511,24.511C452.085,484.665,441.089,495.66,427.574,495.66z"/>
	</g>
</g>
<g>
	<g>
		<path d="M427.574,332.255h-10.894V73.532c0-4.512-3.657-8.17-8.17-8.17h-128L195.54,1.634C194.126,0.573,192.406,0,190.638,0    h-87.149c-4.513,0-8.17,3.658-8.17,8.17v324.085H84.426c-4.513,0-8.17,3.658-8.17,8.17s3.657,8.17,8.17,8.17h343.149    c4.513,0,8.17-3.658,8.17-8.17S432.088,332.255,427.574,332.255z M400.34,332.255H111.66V16.34h76.255l84.97,63.728    c1.414,1.061,3.134,1.634,4.902,1.634H400.34V332.255z"/>
	</g>
</g>
<g>
	<g>
		<path d="M190.638,40.851c-4.513,0-8.17,3.658-8.17,8.17v236.936c0,7.509-6.108,13.617-13.617,13.617s-13.617-6.108-13.617-13.617    V40.851c0-4.512-3.657-8.17-8.17-8.17s-8.17,3.658-8.17,8.17v245.106c0,16.519,13.439,29.957,29.957,29.957    s29.957-13.438,29.957-29.957V49.021C198.809,44.509,195.152,40.851,190.638,40.851z"/>
	</g>
</g>
<g>
	<g>
		<path d="M277.787,98.043c-4.513,0-8.17,3.658-8.17,8.17v179.745c0,7.509-6.108,13.617-13.617,13.617    c-7.509,0-13.617-6.108-13.617-13.617V81.702c0-4.512-3.657-8.17-8.17-8.17s-8.17,3.658-8.17,8.17v204.255    c0,16.519,13.439,29.957,29.957,29.957s29.957-13.438,29.957-29.957V106.213C285.957,101.701,282.3,98.043,277.787,98.043z"/>
	</g>
</g>
<g>
	<g>
		<path d="M364.936,98.043c-4.513,0-8.17,3.658-8.17,8.17v179.745c0,7.509-6.108,13.617-13.617,13.617s-13.617-6.108-13.617-13.617    V106.213c0-4.512-3.657-8.17-8.17-8.17s-8.17,3.658-8.17,8.17v179.745c0,16.519,13.44,29.957,29.957,29.957    c16.518,0,29.957-13.438,29.957-29.957V106.213C373.106,101.701,369.449,98.043,364.936,98.043z"/>
	</g>
</g>
<g>
</g>
<g>
</g>
<g>
</g>
<g>
</g>
<g>
</g>
<g>
</g>
<g>
</g>
<g>
</g>
<g>
</g>
<g>
</g>
<g>
</g>
<g>
</g>
<g>
</g>
<g>
</g>
<g>
</g>
</svg>
