<?xml version="1.0" encoding="iso-8859-1"?>
<!-- Generator: Adobe Illustrator 19.0.0, SVG Export Plug-In . SVG Version: 6.00 Build 0)  -->
<svg xmlns="http://www.w3.org/2000/svg" xmlns:xlink="http://www.w3.org/1999/xlink" version="1.1" id="Layer_1" x="0px" y="0px" viewBox="0 0 512.001 512.001" style="enable-background:new 0 0 512.001 512.001;" xml:space="preserve">
<g>
	<g>
		<path d="M503.83,290.043c4.513,0,8.17-3.658,8.17-8.17v-32.681c0-4.512-3.657-8.17-8.17-8.17H8.17c-4.513,0-8.17,3.658-8.17,8.17    v163.404c0,4.512,3.657,8.17,8.17,8.17h495.66c4.513,0,8.17-3.658,8.17-8.17v-32.681c0-4.512-3.657-8.17-8.17-8.17h-57.191v-16.34    h57.191c4.513,0,8.17-3.658,8.17-8.17c0-4.512-3.657-8.17-8.17-8.17h-57.191v-16.34h57.191c4.513,0,8.17-3.658,8.17-8.17    c0-4.512-3.657-8.17-8.17-8.17h-57.191v-16.34H503.83z M446.638,257.362h49.021v16.34h-49.021V257.362z M65.362,404.426H16.34    V257.362h49.021V404.426z M98.043,404.426h-16.34V257.362h16.34V404.426z M332.255,404.426H114.383V257.362h217.872V404.426z     M430.298,404.426h-49.021v-57.191c0-4.512-3.657-8.17-8.17-8.17s-8.17,3.658-8.17,8.17v57.191h-16.34V257.362h16.34v57.192    c0,4.512,3.657,8.17,8.17,8.17s8.17-3.658,8.17-8.17v-57.192h49.021V404.426z M495.66,388.086v16.34h-49.021v-16.34H495.66z"/>
	</g>
</g>
<g>
	<g>
		<path d="M150.64,83.614c-3.191-3.19-8.364-3.192-11.556,0l-37.768,37.768c-3.191,3.191-3.191,8.364,0,11.554    c1.596,1.595,3.688,2.393,5.778,2.393c2.091,0,4.182-0.797,5.778-2.393l37.768-37.768    C153.831,91.978,153.831,86.804,150.64,83.614z"/>
	</g>
</g>
<g>
	<g>
		<path d="M173.748,106.724c-3.192-3.191-8.364-3.191-11.555,0l-11.554,11.554c-3.191,3.19-3.191,8.363-0.001,11.554    c1.596,1.595,3.687,2.393,5.778,2.393s4.182-0.797,5.778-2.393l11.554-11.554C176.938,115.087,176.938,109.914,173.748,106.724z"/>
	</g>
</g>
<g>
	<g>
		<path d="M387.576,83.616c-3.191-3.19-8.363-3.192-11.555,0l-37.768,37.768c-3.191,3.191-3.191,8.364,0,11.554    c1.595,1.595,3.686,2.393,5.777,2.393c2.091,0,4.182-0.797,5.778-2.393l37.768-37.768    C390.767,91.979,390.767,86.805,387.576,83.616z"/>
	</g>
</g>
<g>
	<g>
		<path d="M410.684,106.724c-3.192-3.191-8.364-3.191-11.555,0l-11.554,11.554c-3.191,3.19-3.191,8.363-0.001,11.554    c1.596,1.595,3.688,2.393,5.778,2.393s4.182-0.797,5.778-2.393l11.554-11.554C413.875,115.087,413.875,109.914,410.684,106.724z"/>
	</g>
</g>
<g>
	<g>
		<path d="M482.043,89.873h-7.092c-12.922-43.263-53.075-74.894-100.483-74.894c-54.075,0-98.717,41.148-104.266,93.777    c-4.629-1.078-9.374-1.642-14.202-1.642c-4.828,0-9.572,0.563-14.202,1.642c-5.55-52.628-50.191-93.777-104.266-93.777    c-47.408,0-87.562,31.631-100.483,74.894h-7.092C13.439,89.873,0,103.311,0,119.83c0,16.519,13.439,29.957,29.957,29.957h7.092    c12.922,43.263,53.075,74.894,100.483,74.894c55.895,0,101.712-43.966,104.693-99.13c4.441-1.389,9.055-2.097,13.775-2.097    c4.72,0,9.334,0.708,13.775,2.097c2.982,55.164,48.798,99.13,104.693,99.13c47.408,0,87.562-31.631,100.483-74.894h7.092    c16.518,0,29.957-13.438,29.957-29.957C512,103.311,498.561,89.873,482.043,89.873z M33.564,133.447h-3.607    c-7.509,0-13.617-6.108-13.617-13.617s6.108-13.617,13.617-13.617h3.607c-0.581,4.459-0.883,9.003-0.883,13.617    C32.681,124.445,32.984,128.989,33.564,133.447z M137.532,208.341c-48.806,0-88.511-39.706-88.511-88.511    c0-48.804,39.705-88.511,88.511-88.511s88.511,39.706,88.511,88.511C226.043,168.635,186.338,208.341,137.532,208.341z     M374.468,208.341c-48.806,0-88.511-39.706-88.511-88.511c0-48.804,39.705-88.511,88.511-88.511s88.511,39.706,88.511,88.511    C462.979,168.635,423.274,208.341,374.468,208.341z M482.043,133.447h-3.607c0.581-4.459,0.883-9.002,0.883-13.617    c0-4.615-0.303-9.158-0.883-13.617h3.607c7.509,0,13.617,6.108,13.617,13.617S489.552,133.447,482.043,133.447z"/>
	</g>
</g>
<g>
	<g>
		<path d="M374.468,47.66c-39.794,0-72.17,32.376-72.17,72.17c0,39.794,32.376,72.17,72.17,72.17s72.17-32.376,72.17-72.17    C446.638,80.036,414.262,47.66,374.468,47.66z M374.468,175.66c-30.785,0-55.83-25.046-55.83-55.83    c0-30.784,25.044-55.83,55.83-55.83c30.785,0,55.83,25.046,55.83,55.83C430.298,150.615,405.253,175.66,374.468,175.66z"/>
	</g>
</g>
<g>
	<g>
		<path d="M137.532,47.66c-12.742,0-25.296,3.399-36.3,9.828c-3.897,2.276-5.209,7.28-2.933,11.176    c2.277,3.896,7.281,5.207,11.176,2.933c8.507-4.97,18.209-7.597,28.058-7.597c30.785,0,55.83,25.046,55.83,55.83    c0,30.784-25.044,55.83-55.83,55.83s-55.831-25.044-55.831-55.829c0-9.85,2.626-19.552,7.597-28.056    c2.277-3.896,0.964-8.899-2.932-11.176c-3.898-2.277-8.9-0.963-11.177,2.933c-6.431,11.004-9.829,23.555-9.829,36.3    c0,39.794,32.376,72.17,72.17,72.17s72.17-32.376,72.17-72.17C209.702,80.036,177.326,47.66,137.532,47.66z"/>
	</g>
</g>
<g>
	<g>
		<path d="M503.83,437.107H73.532c-0.403,0-0.797,0.039-1.185,0.096c-0.073,0.011-0.146,0.021-0.219,0.034    c-0.391,0.068-0.773,0.16-1.144,0.281c-0.036,0.009-65.398,21.794-65.398,21.794C2.251,460.424,0,463.546,0,467.062    c0,3.516,2.25,6.639,5.586,7.751l65.362,21.789c0.407,0.131,0.789,0.222,1.179,0.29c0.074,0.013,0.147,0.023,0.222,0.034    c0.388,0.057,0.781,0.096,1.184,0.096h430.298c4.513,0,8.17-3.658,8.17-8.17v-43.574C512,440.765,508.343,437.107,503.83,437.107z     M65.362,477.516l-31.355-10.452l31.355-10.451V477.516z M408.511,480.681H81.702v-27.234h326.808V480.681z M452.085,480.681    h-27.234v-27.234h27.234V480.681z M495.66,480.681h-27.234v-27.234h27.234V480.681z"/>
	</g>
</g>
<g>
</g>
<g>
</g>
<g>
</g>
<g>
</g>
<g>
</g>
<g>
</g>
<g>
</g>
<g>
</g>
<g>
</g>
<g>
</g>
<g>
</g>
<g>
</g>
<g>
</g>
<g>
</g>
<g>
</g>
</svg>
