<?xml version="1.0" encoding="iso-8859-1"?>
<!-- Generator: Adobe Illustrator 19.0.0, SVG Export Plug-In . SVG Version: 6.00 Build 0)  -->
<svg xmlns="http://www.w3.org/2000/svg" xmlns:xlink="http://www.w3.org/1999/xlink" version="1.1" id="Layer_1" x="0px" y="0px" viewBox="0 0 512 512" style="enable-background:new 0 0 512 512;" xml:space="preserve">
<g>
	<g>
		<circle cx="279.105" cy="278.636" r="8.17"/>
	</g>
</g>
<g>
	<g>
		<circle cx="256" cy="255.531" r="8.17"/>
	</g>
</g>
<g>
	<g>
		<circle cx="232.895" cy="232.415" r="8.17"/>
	</g>
</g>
<g>
	<g>
		<path d="M485.771,88.18l25.809-77.426c0.978-2.936,0.215-6.172-1.974-8.361s-5.425-2.951-8.361-1.974l-77.427,25.809    C395.422,9.058,362.909,0,329.532,0c-89.522,0-164.19,64.804-179.566,149.963c-40.623,7.317-77.755,28.363-105.087,59.715    C15.939,242.876,0.001,285.44,0.001,329.531c0,33.376,9.057,65.89,26.229,94.288L0.42,501.246    c-0.978,2.936-0.215,6.172,1.974,8.361C3.951,511.164,6.039,512,8.172,512c0.864,0,1.736-0.137,2.583-0.419l77.427-25.808    c28.396,17.169,60.91,26.226,94.286,26.226c100.613,0,182.468-81.854,182.468-182.468c0-47.273-18.006-92.099-50.701-126.222    c-32.593-34.016-76.401-53.923-123.355-56.055c-4.518-0.221-8.328,3.283-8.533,7.791c-0.205,4.508,3.283,8.328,7.791,8.533    c88.855,4.035,158.457,76.931,158.457,165.953c0,6.112-0.342,12.146-0.989,18.089c-5.983,0.647-12.04,0.975-18.075,0.975    c-91.603,0-166.127-74.524-166.127-166.127S237.929,16.34,329.532,16.34c31.584,0,62.311,8.903,88.862,25.748    c2.074,1.316,4.63,1.629,6.96,0.852l65.557-21.853l-21.853,65.555c-0.777,2.33-0.464,4.886,0.852,6.96    c16.846,26.553,25.749,57.282,25.749,88.865c0,69.783-44.074,132.592-109.673,156.292c-4.244,1.533-6.441,6.217-4.908,10.46    c1.533,4.244,6.215,6.441,10.46,4.908c72.051-26.029,120.461-95.014,120.461-171.659    C511.999,149.093,502.943,116.578,485.771,88.18z M329.532,364.935c5.135,0,10.282-0.241,15.399-0.669    c-16.015,74.984-82.769,131.392-162.463,131.392c-31.585,0-62.312-8.903-88.862-25.747c-2.073-1.316-4.63-1.629-6.96-0.852    l-65.557,21.851l21.853-65.555c0.777-2.33,0.464-4.886-0.852-6.96c-16.845-26.552-25.749-57.281-25.749-88.864    c0-78.305,55.773-146.335,131.38-162.478c-0.427,5.084-0.657,10.223-0.657,15.414    C147.064,283.081,228.919,364.935,329.532,364.935z"/>
	</g>
</g>
<g>
</g>
<g>
</g>
<g>
</g>
<g>
</g>
<g>
</g>
<g>
</g>
<g>
</g>
<g>
</g>
<g>
</g>
<g>
</g>
<g>
</g>
<g>
</g>
<g>
</g>
<g>
</g>
<g>
</g>
</svg>
